# xmcd
#
# Track frame offsets: 
#        150
#        12965
#        28075
#        40103
#        54003
#        63357
#        75126
#        90986
#        103928
#        116290
#        133465
#        148245
#        159435
#        172527
#        185126
#        197294
#        209031
#        221693
#        236022
#        249365
#
# Disc length: 3482 seconds
#
# Revision: 0
# Processed by: cddbd v1.5.2PL0 Copyright (c) Steve Scherf et al.
# Submitted via: ExactAudioCopy v0.99pb5
#
DISCID=090d9814
DTITLE=Sonny Terry and Brownie McGhee - The Essential Sonny Terry and Brow
DTITLE=nie McGhee [CD2]
DYEAR=2009
DGENRE=Blues
TTITLE0=Goodbye Now
TTITLE1=The Red Cross Store
TTITLE2=Key To The Highway
TTITLE3=Sweet Woman
TTITLE4=Fox Chase
TTITLE5=Glory
TTITLE6=Lonesome Train
TTITLE7=Watch Out (That's The Stuff)
TTITLE8=Run Away Woman (Hootin' The Blues)
TTITLE9=Rock Me Mama
TTITLE10=Pick A Bale Of Cotton
TTITLE11=Worried Life Blues
TTITLE12=Sportin' Life Blues
TTITLE13=Riff and Harmonica Jump
TTITLE14=Whoopin' The Blues
TTITLE15=The Way I Feel
TTITLE16=Screamin' and Cryin' Blues
TTITLE17=Hot Headed Woman
TTITLE18=Custard Pie Blues
TTITLE19=My Fault
EXTD=
EXTT0=
EXTT1=
EXTT2=
EXTT3=
EXTT4=
EXTT5=
EXTT6=
EXTT7=
EXTT8=
EXTT9=
EXTT10=
EXTT11=
EXTT12=
EXTT13=
EXTT14=
EXTT15=
EXTT16=
EXTT17=
EXTT18=
EXTT19=
PLAYORDER=
